HIERARCHY
ROOT Hips
{
	OFFSET 0.000000 0.000000 0.000000
	CHANNELS 6 Xposition Yposition Zposition Zrotation Yrotation Xrotation 
	JOINT LeftUpLeg_virtual
	{
		OFFSET 0.000000 0.000000 0.000000
		CHANNELS 3 Zrotation Yrotation Xrotation
		JOINT LeftUpLeg
		{
			OFFSET 8.479694 -4.795517 -0.379053
			CHANNELS 3 Zrotation Yrotation Xrotation
			JOINT LeftLeg
			{
				OFFSET 0.485052 -32.551468 0.112863
				CHANNELS 3 Zrotation Yrotation Xrotation
				JOINT LeftFoot
				{
					OFFSET 0.438033 -32.635670 -3.012641
					CHANNELS 3 Zrotation Yrotation Xrotation
					JOINT LeftToeBase
					{
						OFFSET 0.970169 -13.225353 11.864223
						CHANNELS 3 Zrotation Yrotation Xrotation
						End Site
						{
							OFFSET 0.000000 0.000000 0.000000
						}
					}
				}
			}
		}
	}
	JOINT RightUpLeg_virtual
	{
		OFFSET 0.000000 0.000000 0.000000
		CHANNELS 3 Zrotation Yrotation Xrotation
		JOINT RightUpLeg
		{
			OFFSET -8.479694 -4.795517 -0.379053
			CHANNELS 3 Zrotation Yrotation Xrotation
			JOINT RightLeg
			{
				OFFSET -0.484100 -32.551483 0.112903
				CHANNELS 3 Zrotation Yrotation Xrotation
				JOINT RightFoot
				{
					OFFSET -0.438985 -32.635651 -3.012681
					CHANNELS 3 Zrotation Yrotation Xrotation
					JOINT RightToeBase
					{
						OFFSET -0.970169 -13.225354 11.864223
						CHANNELS 3 Zrotation Yrotation Xrotation
						End Site
						{
							OFFSET 0.000000 0.000000 0.000000
						}
					}
				}
			}
		}
	}
	JOINT Spine_virtual
	{
		OFFSET 0.000000 0.000000 0.000000
		CHANNELS 3 Zrotation Yrotation Xrotation
		JOINT Spine
		{
			OFFSET 0.000000 7.722015 1.166203
			CHANNELS 3 Zrotation Yrotation Xrotation
			JOINT Spine1
			{
				OFFSET 0.000000 12.024086 0.248766
				CHANNELS 3 Zrotation Yrotation Xrotation
				JOINT Spine2
				{
					OFFSET -0.000000 11.503036 -0.491240
					CHANNELS 3 Zrotation Yrotation Xrotation
					JOINT Neck_virtual
					{
						OFFSET 0.000000 0.000000 0.000000
						CHANNELS 3 Zrotation Yrotation Xrotation
						JOINT Neck
						{
							OFFSET 0.000000 18.430687 -3.123054
							CHANNELS 3 Zrotation Yrotation Xrotation
							JOINT Head
							{
								OFFSET -0.000000 9.051071 1.034021
								CHANNELS 3 Zrotation Yrotation Xrotation
								End Site
								{
									OFFSET 0.000000 0.000000 0.000000
								}
							}
						}
					}
					JOINT LeftShoulder_virtual
					{
						OFFSET 0.000000 0.000000 0.000000
						CHANNELS 3 Zrotation Yrotation Xrotation
						JOINT LeftShoulder
						{
							OFFSET 6.197824 13.665230 -4.064723
							CHANNELS 3 Zrotation Yrotation Xrotation
							JOINT LeftArm
							{
								OFFSET 7.778132 -0.187073 -1.709282
								CHANNELS 3 Zrotation Yrotation Xrotation
								JOINT LeftForeArm
								{
									OFFSET 21.954697 0.000000 -2.041093
									CHANNELS 3 Zrotation Yrotation Xrotation
									JOINT LeftHand
									{
										OFFSET 22.992908 0.000000 -0.870901
										CHANNELS 3 Zrotation Yrotation Xrotation
										End Site
										{
											OFFSET 0.000000 0.000000 0.000000
										}
									}
								}
							}
						}
					}
					JOINT RightShoulder_virtual
					{
						OFFSET 0.000000 0.000000 0.000000
						CHANNELS 3 Zrotation Yrotation Xrotation
						JOINT RightShoulder
						{
							OFFSET -6.197824 13.665230 -4.064723
							CHANNELS 3 Zrotation Yrotation Xrotation
							JOINT RightArm
							{
								OFFSET -7.778132 -0.187073 -1.709282
								CHANNELS 3 Zrotation Yrotation Xrotation
								JOINT RightForeArm
								{
									OFFSET -21.954697 0.000000 -2.041093
									CHANNELS 3 Zrotation Yrotation Xrotation
									JOINT RightHand
									{
										OFFSET -22.992908 0.000000 -0.870901
										CHANNELS 3 Zrotation Yrotation Xrotation
										End Site
										{
											OFFSET 0.000000 0.000000 0.000000
										}
									}
								}
							}
						}
					}
				}
			}
		}
	}
}
MOTION
Frames: 13
Frame Time: 0.033333
-8.212930 81.028786 6.564432 179.990702 -2.831475 -179.973354 -1.220198 -0.574450 16.342740 4.375924 -4.676526 -22.133610 1.246412 1.346883 24.411724 1.280189 -6.454341 -12.555853 0.000000 0.000000 0.000000 3.194148 -1.440314 17.305731 -6.419267 5.299043 -25.510786 0.702365 8.193885 31.608104 13.125771 3.693094 -14.230294 0.000000 0.000000 0.000000 3.630591 1.665945 3.404493 0.642095 -1.298486 -9.174114 -0.583737 -2.553644 7.799308 -0.015622 0.035676 0.008791 -0.826886 -0.801853 8.091520 -1.483620 3.096098 0.971432 0.000000 0.000000 0.000000 0.869129 -0.204060 5.118437 -13.199662 -3.188571 2.131934 -53.884831 -11.726450 16.545348 3.835162 -32.069616 5.136406 0.000000 0.000000 0.000000 -3.663478 1.269043 4.442530 28.643372 2.059319 8.536815 48.374395 4.060577 11.817960 -2.885185 30.214407 -1.959927 0.000000 0.000000 0.000000 
-8.227859 81.028854 6.599781 179.983531 -2.810228 -179.980607 -1.201601 -0.582328 16.312068 4.287407 -4.635835 -22.146349 1.213674 1.620595 24.510306 1.298583 -6.455068 -12.604079 0.000000 0.000000 0.000000 3.275418 -1.355624 17.310833 -6.481873 5.204825 -25.431000 0.799852 8.359340 31.546919 13.308976 3.906186 -14.363200 0.000000 0.000000 0.000000 3.579985 1.647851 3.445536 0.657681 -1.294046 -9.134470 -0.501327 -2.385215 7.805371 -0.033205 0.033139 0.014866 -0.854758 -0.901745 8.109795 -1.460411 3.076359 0.951988 0.000000 0.000000 0.000000 0.828117 -0.291178 5.164180 -13.191801 -3.250632 2.077603 -53.904300 -11.737526 16.524036 3.766663 -32.114474 5.279960 0.000000 0.000000 0.000000 -3.695292 1.137325 4.459208 28.655789 2.065086 8.362804 48.377677 3.989187 11.650377 -2.728582 30.225940 -1.804464 0.000000 0.000000 0.000000 
-8.244731 81.031471 6.636388 179.972698 -2.819737 -179.954188 -1.194944 -0.578453 16.293177 4.280583 -4.670367 -22.153840 1.220056 1.617248 24.491298 1.304702 -6.453500 -12.567382 0.000000 0.000000 0.000000 3.248911 -1.410876 17.303748 -6.501848 5.271072 -25.461115 0.778730 8.348218 31.531876 13.317165 3.884278 -14.305564 0.000000 0.000000 0.000000 3.614804 1.617329 3.431309 0.635141 -1.299284 -9.108845 -0.549704 -2.399510 7.798687 0.013425 0.005146 -0.015773 -0.824144 -0.839133 8.159898 -1.423195 3.085522 0.929862 0.000000 0.000000 0.000000 0.871466 -0.286383 5.164860 -13.217886 -3.235817 2.104730 -53.917787 -11.681977 16.463343 3.764624 -32.114668 5.265281 0.000000 0.000000 0.000000 -3.674477 1.194770 4.488688 28.649857 2.122332 8.429509 48.398389 3.995035 11.779580 -2.908416 30.159913 -1.953073 0.000000 0.000000 0.000000 
-8.256501 81.035538 6.672166 179.979501 -2.702720 -179.972835 -1.184140 -0.501235 16.293848 4.275891 -4.639748 -22.128858 1.225151 1.687470 24.446441 1.331782 -6.434702 -12.560385 0.000000 0.000000 0.000000 3.246936 -1.336036 17.282742 -6.509867 5.345628 -25.448945 0.764127 8.378419 31.515569 13.332889 3.895306 -14.291462 0.000000 0.000000 0.000000 3.624196 1.630490 3.452643 0.624377 -1.258696 -9.023844 -0.534923 -2.370336 7.827804 -0.015525 0.023956 0.019580 -0.778588 -0.835485 8.112119 -1.412650 3.059241 0.882390 0.000000 0.000000 0.000000 0.909047 -0.249889 5.147228 -13.216773 -3.162611 2.122327 -53.976786 -11.748909 16.514952 3.778765 -32.099683 5.251313 0.000000 0.000000 0.000000 -3.625791 1.197219 4.434337 28.681436 2.182041 8.457025 48.403898 3.984977 11.561542 -2.830483 30.072496 -1.884420 0.000000 0.000000 0.000000 
-8.258231 81.039803 6.701258 179.962507 -2.872889 -179.979351 -1.202108 -0.672054 16.260367 4.298033 -4.728575 -22.096408 1.238129 1.779545 24.416991 1.315681 -6.450969 -12.551319 0.000000 0.000000 0.000000 3.239185 -1.557931 17.262552 -6.480941 5.236596 -25.437025 0.830420 8.598810 31.508240 13.267111 3.814886 -14.313258 0.000000 0.000000 0.000000 3.618745 1.549873 3.445245 0.596563 -1.315625 -8.935410 -0.484233 -2.436386 7.837561 0.054426 -0.033781 0.021614 -0.842537 -0.963755 8.120692 -1.395205 3.094317 0.838292 0.000000 0.000000 0.000000 0.832527 -0.244082 5.110199 -13.273316 -3.147641 2.132952 -54.066831 -11.674984 16.351401 3.669928 -32.152658 5.384817 0.000000 0.000000 0.000000 -3.687455 1.240682 4.431831 28.690640 2.271214 8.473799 48.451900 3.967030 11.447428 -2.818203 29.967557 -1.882911 0.000000 0.000000 0.000000 
-8.252229 81.043839 6.726352 179.981796 -2.834516 -179.995866 -1.205358 -0.667531 16.231256 4.306237 -4.722599 -22.069432 1.245531 1.814188 24.389499 1.309477 -6.448656 -12.550555 0.000000 0.000000 0.000000 3.232536 -1.600787 17.218856 -6.515942 5.378764 -25.459020 0.855037 8.580734 31.465555 13.268581 3.810896 -14.262248 0.000000 0.000000 0.000000 3.645143 1.563385 3.465831 0.581562 -1.274549 -8.867771 -0.483218 -2.400895 7.835351 0.004258 0.002554 0.025070 -0.759401 -0.921293 8.132118 -1.294373 3.018484 0.770464 0.000000 0.000000 0.000000 0.898981 -0.318644 5.143572 -13.277872 -3.199690 2.128053 -54.155037 -11.668515 16.245047 3.601283 -32.148532 5.443201 0.000000 0.000000 0.000000 -3.633142 1.189871 4.387810 28.694765 2.274387 8.490835 48.501658 3.883059 11.364307 -2.953184 29.885144 -1.986149 0.000000 0.000000 0.000000 
-8.243587 81.049507 6.745601 -179.992546 -2.824799 -179.982014 -1.221462 -0.653064 16.203213 4.346000 -4.692933 -22.044857 1.264370 1.829254 24.393251 1.289643 -6.467478 -12.555799 0.000000 0.000000 0.000000 3.283174 -1.587724 17.202091 -6.499458 5.254131 -25.422616 0.881755 8.577303 31.468854 13.299961 3.847113 -14.278855 0.000000 0.000000 0.000000 3.686620 1.522650 3.463938 0.574442 -1.296677 -8.786418 -0.473352 -2.424025 7.837572 -0.012892 -0.018688 0.019156 -0.734699 -0.911832 8.139265 -1.249114 3.023347 0.651308 0.000000 0.000000 0.000000 0.956221 -0.304201 5.082412 -13.280858 -3.208517 2.212914 -54.203582 -11.671222 16.079852 3.600677 -32.130842 5.409138 0.000000 0.000000 0.000000 -3.581361 1.186138 4.401335 28.682235 2.414950 8.536741 48.507187 3.896167 11.305098 -3.023038 29.819008 -2.098165 0.000000 0.000000 0.000000 
-8.221857 81.051712 6.772976 179.843266 -2.800185 -179.986645 -1.311200 -0.624177 16.174258 4.344385 -4.923343 -22.019854 1.265706 1.932787 24.316909 1.309153 -6.427875 -12.504043 0.000000 0.000000 0.000000 3.132964 -1.614800 17.191315 -6.583592 5.391099 -25.475745 0.820079 8.328945 31.452686 13.398810 3.952054 -14.180973 0.000000 0.000000 0.000000 3.606574 1.402192 3.473507 0.485086 -1.262183 -8.684213 -0.469565 -2.377364 7.818423 0.002646 0.042873 0.016733 -0.686411 -0.735271 8.131188 -1.129678 2.929784 0.498442 0.000000 0.000000 0.000000 1.005562 -0.327807 5.052351 -13.247417 -3.271075 2.234976 -54.264087 -11.628391 15.937954 3.567660 -32.063039 5.396895 0.000000 0.000000 0.000000 -3.523899 1.195428 4.364483 28.601685 2.438512 8.614293 48.632364 3.863284 11.206065 -3.075987 29.779673 -2.184206 0.000000 0.000000 0.000000 
-8.187284 81.057320 6.812371 179.886064 -2.689870 -179.995989 -1.286393 -0.486068 16.182497 4.411720 -4.943796 -22.011103 1.301203 1.966076 24.242186 1.315805 -6.439579 -12.476799 0.000000 0.000000 0.000000 3.192358 -1.480887 17.205305 -6.593482 5.353344 -25.485809 0.880011 8.303885 31.453807 13.373182 3.979776 -14.146310 0.000000 0.000000 0.000000 3.670626 1.556511 3.510803 0.493841 -1.256379 -8.571480 -0.455289 -2.371171 7.773424 0.027087 0.022062 -0.018760 -0.743356 -0.900355 8.133317 -1.086677 2.935070 0.273725 0.000000 0.000000 0.000000 0.913726 -0.297813 5.050072 -13.171490 -3.360235 2.235402 -54.346193 -11.602291 15.948049 3.575631 -32.003726 5.351035 0.000000 0.000000 0.000000 -3.565486 1.220954 4.346524 28.509056 2.509768 8.575907 48.676313 3.807178 11.269287 -3.124630 29.786786 -2.191287 0.000000 0.000000 0.000000 
-8.128385 81.065689 6.861942 179.893796 -2.873182 -179.981891 -1.272529 -0.486639 16.192406 4.430478 -5.069297 -22.058521 1.311656 1.668748 24.161460 1.310741 -6.429076 -12.351541 0.000000 0.000000 0.000000 3.164428 -1.518061 17.176000 -6.500921 5.210724 -25.508448 0.880794 8.191915 31.414434 13.333824 4.023556 -14.111894 0.000000 0.000000 0.000000 3.720606 1.521056 3.539711 0.515565 -1.262702 -8.471597 -0.452519 -2.369184 7.725735 0.034100 0.008897 -0.012862 -0.755019 -0.917406 8.100866 -0.982840 2.849112 -0.014893 0.000000 0.000000 0.000000 0.906551 -0.305079 5.005977 -13.022095 -3.526824 2.173299 -54.382086 -11.438817 15.684720 3.440329 -31.938432 5.427302 0.000000 0.000000 0.000000 -3.596273 1.218360 4.310131 28.403364 2.545012 8.631999 48.752890 3.760492 11.411714 -3.176055 29.759486 -2.230028 0.000000 0.000000 0.000000 
-8.046907 81.078117 6.924921 179.891446 -3.007867 179.969119 -1.188138 -0.631825 16.197884 4.463732 -5.427351 -22.001694 1.321503 1.823285 24.007160 1.374579 -6.377482 -12.287790 0.000000 0.000000 0.000000 3.168284 -1.578500 17.276219 -6.405652 4.961981 -25.573234 0.906983 8.195252 31.398796 13.308810 4.102454 -14.036472 0.000000 0.000000 0.000000 3.758007 1.481987 3.619868 0.547511 -1.246493 -8.319073 -0.458942 -2.346268 7.660692 0.018671 0.003857 -0.020418 -0.742048 -0.910623 8.025240 -0.879767 2.741623 -0.363553 0.000000 0.000000 0.000000 0.867648 -0.201716 5.016042 -12.840061 -3.667234 2.101507 -54.443271 -11.417486 15.462986 3.234445 -31.793397 5.546257 0.000000 0.000000 0.000000 -3.604367 1.197125 4.253621 28.263357 2.624578 8.683243 48.807811 3.747001 11.618249 -3.272779 29.687738 -2.399792 0.000000 0.000000 0.000000 
-7.938864 81.091988 6.999266 179.855396 -3.119148 179.988667 -1.196271 -0.620675 16.174240 4.543906 -5.611193 -22.011878 1.267685 1.551408 23.928050 1.498803 -6.215307 -12.162355 0.000000 0.000000 0.000000 3.097075 -1.724674 17.089214 -6.282735 4.857181 -25.472173 0.922419 8.181874 31.371885 13.261109 4.199846 -13.882796 0.000000 0.000000 0.000000 3.749735 1.430054 3.688349 0.580285 -1.263722 -8.134820 -0.468695 -2.340297 7.578573 0.053760 -0.024804 -0.011733 -0.748210 -0.938933 7.934072 -0.838017 2.676768 -0.768342 0.000000 0.000000 0.000000 0.858123 -0.121016 4.909465 -12.609415 -3.766237 1.981295 -54.627064 -11.156287 15.202676 3.229031 -31.542408 5.491080 0.000000 0.000000 0.000000 -3.600747 1.272725 4.190221 28.107729 2.736578 8.669475 48.843154 3.746102 11.699382 -3.258493 29.546138 -2.419392 0.000000 0.000000 0.000000 
-7.800904 81.109245 7.084826 179.845329 -3.178948 179.977274 -1.274770 -0.620118 16.096625 4.630677 -5.527541 -22.022326 1.478944 1.494375 23.896407 1.321979 -6.423709 -12.090698 0.000000 0.000000 0.000000 3.097706 -1.768681 16.999767 -6.172904 4.720333 -25.445919 0.959217 8.103219 31.326471 13.177056 4.326539 -13.804885 0.000000 0.000000 0.000000 3.761060 1.388264 3.749932 0.659121 -1.231097 -7.900171 -0.469261 -2.292230 7.493073 0.029236 -0.010473 0.014929 -0.730080 -0.742361 7.781420 -0.712980 2.486856 -1.228809 0.000000 0.000000 0.000000 0.866208 -0.113419 4.805542 -12.337781 -3.870845 1.972257 -54.831290 -10.812552 14.446931 3.173550 -31.086810 5.463581 0.000000 0.000000 0.000000 -3.593892 1.288738 4.047783 27.993913 2.700611 8.729671 48.909550 3.690598 11.703599 -3.362816 29.285713 -2.578743 0.000000 0.000000 0.000000 
